<?xml version="1.0" encoding="utf-8"?>
<!-- Generator: Adobe Illustrator 19.0.0, SVG Export Plug-In . SVG Version: 6.00 Build 0)  -->
<svg version="1.1" id="Layer_1" xmlns="http://www.w3.org/2000/svg" xmlns:xlink="http://www.w3.org/1999/xlink" x="0px" y="0px"
	 viewBox="0 0 1000 1000" style="enable-background:new 0 0 1000 1000;" xml:space="preserve">
<path id="XMLID_4_" d="M770.4727173,227.425354c39.6831055-15.4902954,82.9113159-27.1513672,128.5977783-34.2336426
	c-50.8377686-12.8282471-105.7141113-19.8361816-162.9956055-19.8361816
	c-183.9008179,0-343.3033447,72.2774048-421.7575073,177.8726196l0.3860474,0.1188965
	c0.3860474-0.5049438,0.8018188-0.9799805,1.2175903-1.4847412C282.5142212,390.8115845,262.4403687,443.045105,262.4403687,500
	c0,40.2366333,10.0072021,78.1422729,27.668335,111.3560791c32.2402954,60.6321411,3.3745728,136.3082275-60.6011963,161.2643433
	c-39.6578979,15.4700928-82.8701782,27.1080933-128.5780029,34.1878052
	c50.8377686,12.8282471,105.7141113,19.8362427,162.9956055,19.8362427
	c183.9008179,0,343.3033447-72.2775879,421.7575073-177.8728638l-0.3860474-0.1187134
	C717.9905396,607.9707642,737.5596313,556.2719727,737.5596313,500c0-40.2181396-10.0053711-78.0926514-27.6586914-111.2879639
	C677.6546021,328.0757446,706.4966431,252.3985596,770.4727173,227.425354z M500,574.2373657
	c-41.008728,0-74.2373657-33.2286377-74.2373657-74.2373657S458.991272,425.7626343,500,425.7626343
	S574.2373657,458.991272,574.2373657,500S541.008728,574.2373657,500,574.2373657z"/>
</svg>
